<svg width="375" height="77" viewBox="0 0 375 77" fill="none" xmlns="http://www.w3.org/2000/svg">
<g clip-path="url(#clip0_20_44)">
<path d="M92.4205 24.6523C92.4205 26.7773 91.1913 27.8398 88.733 27.8398C87.5767 27.7982 86.3476 27.7773 85.0455 27.7773C83.7382 27.7773 82.4517 27.7669 81.1913 27.7357V34.3815C82.2017 34.3555 83.1965 34.3398 84.1705 34.3398C85.1549 34.3398 86.1288 34.3294 87.0872 34.2982C89.5455 34.2982 90.7747 35.2669 90.7747 37.194C90.7747 39.168 89.5455 40.1523 87.0872 40.1523C86.1288 40.1263 85.1549 40.1107 84.1705 40.1107C83.1965 40.1107 82.2017 40.1002 81.1913 40.069C81.1913 41.3763 81.1913 42.6836 81.1913 43.9857C81.1913 45.2773 81.1913 46.5898 81.1913 47.9232C81.2174 49.1055 80.9101 50.0169 80.2747 50.6523C79.634 51.293 78.7226 51.6107 77.5455 51.6107H76.7538C75.5715 51.6107 74.6601 51.293 74.0247 50.6523C73.384 50.0169 73.0767 49.1055 73.108 47.9232C73.108 46.0065 73.1132 44.1055 73.1288 42.2148C73.1392 40.3294 73.1497 38.4388 73.1497 36.5482C73.1497 34.6732 73.1392 32.793 73.1288 30.9023C73.1132 29.0013 73.108 27.1107 73.108 25.2357C73.0767 24.043 73.384 23.1263 74.0247 22.4857C74.6601 21.8502 75.5715 21.5273 76.7538 21.5273H88.733C91.1913 21.5273 92.4205 22.569 92.4205 24.6523Z" fill="#004AAD"/>
<path d="M114.342 27.6107C116.8 27.6107 118.029 28.8398 118.029 31.2982C117.988 32.8398 117.957 34.3711 117.946 35.8815C117.93 37.3971 117.925 38.9388 117.925 40.5065C117.925 41.7461 117.93 42.9804 117.946 44.2148C117.957 45.4388 117.967 46.6732 117.967 47.9232C118.009 49.1054 117.764 50.0169 117.238 50.6523C116.722 51.2929 115.988 51.6107 115.029 51.6107C112.972 51.6107 111.759 50.9596 111.384 49.6523C111.201 48.9336 111.071 48.2513 110.988 47.6107C110.321 49.0273 109.368 50.1315 108.134 50.9232C106.91 51.6992 105.446 52.0898 103.738 52.0898C102.321 52.0898 101.076 51.8034 100.009 51.2357C98.9357 50.6523 98.118 49.7096 97.5503 48.4023C96.993 47.1002 96.7273 45.3502 96.7586 43.1523C96.8107 41.1263 96.8263 39.1471 96.8003 37.2148C96.769 35.2721 96.743 33.2982 96.7169 31.2982C96.7169 28.8398 97.9461 27.6107 100.404 27.6107H100.654C103.113 27.6107 104.342 28.8398 104.342 31.2982C104.311 33.0638 104.29 34.7982 104.279 36.5065C104.264 38.2148 104.259 39.9648 104.259 41.7565C104.259 43.1471 104.498 44.1888 104.988 44.8815C105.488 45.5794 106.175 45.9127 107.05 45.8815C108.05 45.8554 108.863 45.3971 109.488 44.5065C110.113 43.6054 110.425 42.2721 110.425 40.5065C110.477 38.9388 110.498 37.3971 110.488 35.8815C110.472 34.3711 110.451 32.8398 110.425 31.2982C110.394 30.1211 110.701 29.2096 111.342 28.569C111.977 27.9336 112.889 27.6107 114.071 27.6107H114.342Z" fill="#004AAD"/>
<path d="M134.278 46.3607C135.554 46.3086 136.538 46.3763 137.236 46.569C137.929 46.7513 138.319 47.2877 138.403 48.1732C138.486 49.1055 138.33 49.9023 137.944 50.569C137.554 51.2357 136.882 51.6627 135.924 51.8607C135.059 52.0377 134.111 52.1315 133.069 52.1315C131.278 52.1315 129.721 51.8607 128.403 51.319C127.08 50.7669 126.069 49.8711 125.361 48.6315C124.653 47.3815 124.309 45.7044 124.34 43.5898C124.366 42.3138 124.382 40.9805 124.382 39.5898C124.382 38.2044 124.382 36.8138 124.382 35.4232V33.1732H124.34C121.882 33.1732 120.653 32.2461 120.653 30.3815C120.653 28.5377 121.278 27.6107 122.528 27.6107H124.34C124.34 27.2357 124.33 26.8763 124.319 26.5273C124.304 26.1836 124.299 25.819 124.299 25.444C124.299 23.3086 125.309 21.918 127.34 21.2773C128.559 20.8763 129.538 20.9023 130.278 21.3607C131.012 21.819 131.382 22.6315 131.382 23.7982V27.6107H134.424C136.882 27.6107 138.111 28.5221 138.111 30.3398C138.111 32.1732 136.991 33.0898 134.757 33.0898L131.382 33.1315C131.382 33.5065 131.372 33.8815 131.361 34.2565C131.346 34.6315 131.34 35.0221 131.34 35.4232C131.309 36.6732 131.299 37.9232 131.299 39.1732C131.299 40.4127 131.299 41.5898 131.299 42.7148C131.299 45.1732 132.288 46.3919 134.278 46.3607Z" fill="#004AAD"/>
<path d="M159.327 27.6107C161.785 27.6107 163.015 28.8398 163.015 31.2982C162.973 32.8398 162.942 34.3711 162.931 35.8815C162.916 37.3971 162.91 38.9388 162.91 40.5065C162.91 41.7461 162.916 42.9804 162.931 44.2148C162.942 45.4388 162.952 46.6732 162.952 47.9232C162.994 49.1054 162.749 50.0169 162.223 50.6523C161.707 51.2929 160.973 51.6107 160.015 51.6107C157.957 51.6107 156.744 50.9596 156.369 49.6523C156.187 48.9336 156.056 48.2513 155.973 47.6107C155.306 49.0273 154.353 50.1315 153.119 50.9232C151.895 51.6992 150.431 52.0898 148.723 52.0898C147.306 52.0898 146.062 51.8034 144.994 51.2357C143.921 50.6523 143.103 49.7096 142.535 48.4023C141.978 47.1002 141.713 45.3502 141.744 43.1523C141.796 41.1263 141.812 39.1471 141.785 37.2148C141.754 35.2721 141.728 33.2982 141.702 31.2982C141.702 28.8398 142.931 27.6107 145.39 27.6107H145.64C148.098 27.6107 149.327 28.8398 149.327 31.2982C149.296 33.0638 149.275 34.7982 149.265 36.5065C149.249 38.2148 149.244 39.9648 149.244 41.7565C149.244 43.1471 149.483 44.1888 149.973 44.8815C150.473 45.5794 151.16 45.9127 152.035 45.8815C153.035 45.8554 153.848 45.3971 154.473 44.5065C155.098 43.6054 155.41 42.2721 155.41 40.5065C155.463 38.9388 155.483 37.3971 155.473 35.8815C155.457 34.3711 155.437 32.8398 155.41 31.2982C155.379 30.1211 155.687 29.2096 156.327 28.569C156.963 27.9336 157.874 27.6107 159.056 27.6107H159.327Z" fill="#004AAD"/>
<path d="M181.826 27.2565C182.227 27.3554 182.643 27.5794 183.076 27.9232C183.518 28.2721 183.888 28.8607 184.18 29.694C184.315 30.1836 184.388 30.6888 184.388 31.2148C184.388 31.7304 184.315 32.2357 184.18 32.7357C183.888 33.8607 183.451 34.6054 182.867 34.9648C182.294 35.3294 181.732 35.4127 181.18 35.2148C180.623 35.0377 180.044 34.944 179.451 34.944C177.56 34.944 176.211 36.1471 175.409 38.5482V39.5898C175.409 40.0482 175.399 40.5273 175.388 41.0273C175.373 41.5169 175.367 41.9857 175.367 42.444C175.367 43.3502 175.373 44.2461 175.388 45.1315C175.399 46.0065 175.419 46.9127 175.451 47.8398C175.534 50.3554 174.331 51.6107 171.847 51.6107H171.722C169.263 51.6107 168.034 50.3815 168.034 47.9232C168.06 46.5377 168.081 45.1523 168.097 43.7773C168.107 42.4023 168.117 41.0065 168.117 39.5898C168.117 38.1471 168.107 36.7461 168.097 35.3815C168.081 34.0221 168.06 32.6471 168.034 31.2565C168.034 28.7982 169.206 27.569 171.555 27.569C173.888 27.569 175.055 28.4961 175.055 30.3398V33.1732L175.201 33.2565C175.544 31.4648 176.201 30.0065 177.159 28.8815C178.128 27.7461 179.326 27.1732 180.742 27.1732C180.977 27.1732 181.185 27.1836 181.367 27.194C181.56 27.2096 181.711 27.2304 181.826 27.2565Z" fill="#004AAD"/>
<path d="M197.177 52.0482C193.302 52.0482 190.469 50.9857 188.677 48.8607C186.885 46.7357 185.99 43.5273 185.99 39.2357C185.99 31.2252 189.719 27.2148 197.177 27.2148C199.87 27.2148 202.031 27.7877 203.656 28.9232C205.292 30.0482 206.437 31.6315 207.094 33.6732C207.745 35.7148 207.927 38.0794 207.635 40.7565C207.578 41.2305 207.365 41.4648 206.99 41.4648H193.156C193.208 42.9388 193.417 44.0794 193.781 44.8815C194.141 45.6888 194.615 46.2461 195.198 46.5482C195.792 46.8555 196.469 47.0065 197.219 47.0065C198.354 47.0065 199.26 46.819 199.927 46.444C200.469 46.069 200.891 45.7096 201.198 45.3607C201.5 45.0169 201.828 44.7305 202.177 44.5065C202.521 44.2721 203 44.1523 203.615 44.1523C204.74 44.1523 205.635 44.4388 206.302 45.0065C206.969 45.5638 207.141 46.3346 206.823 47.319C205.807 50.4752 202.594 52.0482 197.177 52.0482ZM193.198 37.3815H200.302C200.37 35.6471 200.125 34.3502 199.573 33.4857C199.016 32.6107 198.104 32.1732 196.844 32.1732C195.703 32.1732 194.802 32.6055 194.135 33.4648C193.479 34.3138 193.167 35.6211 193.198 37.3815Z" fill="#004AAD"/>
<mask id="mask0_20_44" style="mask-type:luminance" maskUnits="userSpaceOnUse" x="0" y="16" width="32" height="43">
<path d="M0.3125 16.9062H32V58.724H0.3125V16.9062Z" fill="white"/>
</mask>
<g mask="url(#mask0_20_44)">
<path d="M27.849 40.6406L31.8385 47.1719L24.5938 59.0833L0.3125 16.9219H8.16146L24.7552 45.7292L27.849 40.6406Z" fill="#0CC0DF"/>
</g>
<mask id="mask1_20_44" style="mask-type:luminance" maskUnits="userSpaceOnUse" x="18" y="16" width="50" height="43">
<path d="M18.6666 16.9062H68V58.6667H18.6666V16.9062Z" fill="white"/>
</mask>
<g mask="url(#mask1_20_44)">
<path d="M67.9583 16.9219L64.026 23.724H23.901L19.7916 16.9219H67.9583ZM30.9218 35.599L44.4218 57.6302L48.2916 50.9427L40.9635 39.0417H55.177L59.1093 32.2448H32.9635L30.9218 35.599Z" fill="#004AAD"/>
</g>
<mask id="mask2_20_44" style="mask-type:luminance" maskUnits="userSpaceOnUse" x="208" y="18" width="51" height="38">
<path d="M208 18.8958H258.505V55.7344H208V18.8958Z" fill="white"/>
</mask>
<g mask="url(#mask2_20_44)">
<path d="M212.932 18.8958H215.755L220.385 37.6406C220.875 39.6146 220.854 41.5885 220.323 43.5521L217.068 55.5781L208.542 24.6615C207.745 21.7604 209.927 18.8958 212.932 18.8958ZM238.552 55.5781L241.12 44.8906C241.75 42.2708 241.708 39.6615 240.99 37.0625L235.984 18.8958H234.323C233.583 18.8958 232.865 19.0156 232.167 19.25C231.464 19.4896 230.823 19.8333 230.24 20.2812C229.651 20.7344 229.156 21.2656 228.745 21.8802C228.333 22.4948 228.036 23.1562 227.844 23.8698L219.385 55.5781H221.505C222.234 55.5781 222.948 55.4635 223.646 55.2292C224.339 54.9948 224.979 54.6562 225.562 54.2083C226.146 53.7656 226.641 53.2396 227.052 52.6302C227.464 52.026 227.766 51.3698 227.964 50.6615L232.578 33.9375L238.552 55.5781ZM248.271 23.5729L240.552 55.5781H243.437C244.104 55.5781 244.755 55.474 245.391 55.2604C246.026 55.0469 246.609 54.7344 247.141 54.3281C247.672 53.9271 248.125 53.4427 248.5 52.8906C248.875 52.3385 249.151 51.7344 249.328 51.0937L258.203 18.8958H254.214C253.531 18.8958 252.859 19.0104 252.214 19.2344C251.568 19.4583 250.974 19.7812 250.432 20.2083C249.896 20.6302 249.437 21.1302 249.068 21.7083C248.698 22.2865 248.432 22.9062 248.271 23.5729Z" fill="#1791C8"/>
</g>
<mask id="mask3_20_44" style="mask-type:luminance" maskUnits="userSpaceOnUse" x="218" y="18" width="38" height="38">
<path d="M218.667 18.8958H256V55.7344H218.667V18.8958Z" fill="white"/>
</mask>
<g mask="url(#mask3_20_44)">
<path d="M245.651 34.4427L243.141 44.849C249.115 45.9062 251.094 42.5052 252.359 40.0937L255.568 28.4635C248.844 28.4479 246.417 31.2812 245.651 34.4427ZM235.984 18.8958H234.323C233.583 18.8958 232.865 19.0156 232.167 19.25C231.464 19.4896 230.823 19.8333 230.24 20.2812C229.651 20.7344 229.156 21.2656 228.745 21.8802C228.333 22.4948 228.036 23.1562 227.844 23.8698L223.318 40.8437L219.385 55.5781H221.505C222.234 55.5781 222.948 55.4635 223.646 55.2292C224.339 54.9948 224.979 54.6562 225.562 54.2083C226.146 53.7656 226.641 53.2396 227.052 52.6302C227.464 52.026 227.766 51.3698 227.964 50.6615L231.641 37.3333L232.578 33.9375C233.922 29.0312 234.474 25.7917 237.479 24.3125L235.984 18.8958Z" fill="#0CC0DF"/>
</g>
<mask id="mask4_20_44" style="mask-type:luminance" maskUnits="userSpaceOnUse" x="209" y="18" width="50" height="38">
<path d="M209.333 18.8958H258.505V55.7344H209.333V18.8958Z" fill="white"/>
</mask>
<g mask="url(#mask4_20_44)">
<path d="M220.385 37.6406C220.875 39.6146 220.854 41.5885 220.323 43.5521L217.068 55.5781L210.068 30.1875C211.964 34.3229 215.24 34.8073 219.417 33.7031L220.385 37.6406ZM223.318 40.8437L219.385 55.5781H221.505C222.234 55.5781 222.948 55.4635 223.646 55.2292C224.339 54.9948 224.979 54.6562 225.563 54.2083C226.146 53.7656 226.641 53.2396 227.052 52.6302C227.464 52.026 227.766 51.3698 227.964 50.6615L231.641 37.3333C230.589 40.5677 227.542 41.9062 223.318 40.8437ZM254.214 18.8958C253.531 18.8958 252.859 19.0104 252.214 19.2344C251.568 19.4583 250.974 19.7812 250.432 20.2083C249.896 20.6302 249.438 21.1302 249.068 21.7083C248.698 22.2865 248.432 22.9062 248.271 23.5729L245.651 34.4427C246.417 31.2812 248.844 28.4479 255.568 28.4635L258.203 18.8958H254.214Z" fill="#004AAD"/>
</g>
<path d="M263.005 53.0822C261.589 53.0822 260.287 52.853 259.11 52.3947C257.943 51.9259 257.011 51.2072 256.318 50.2489C255.636 49.2801 255.297 48.0353 255.297 46.5197C255.297 43.8114 256.443 41.7697 258.735 40.3947C261.037 39.0197 264.63 38.4051 269.505 38.5405V37.0822C269.505 35.4884 269.281 34.4051 268.839 33.8322C268.391 33.2489 267.693 32.9572 266.735 32.9572C266.193 32.9572 265.683 33.0405 265.214 33.2072C264.755 33.3634 264.391 33.6395 264.13 34.0405C263.724 34.6811 263.386 35.228 263.11 35.6864C262.844 36.1447 262.537 36.4989 262.193 36.7489C261.844 36.9989 261.308 37.1239 260.589 37.1239H260.151C258.927 37.1239 257.948 36.7905 257.214 36.1239C256.474 35.4572 256.281 34.5353 256.63 33.353C257.115 31.6447 258.224 30.3739 259.964 29.5405C261.698 28.6968 264.141 28.2697 267.297 28.2697C273.755 28.2697 276.985 31.1603 276.985 36.9364C276.985 39.5509 276.99 41.827 277.005 43.7697C277.016 45.702 277.052 47.4051 277.11 48.8739C277.162 50.0822 276.901 51.0145 276.318 51.6655C275.745 52.3218 274.865 52.6447 273.672 52.6447H273.297C271.089 52.6447 269.901 52.3009 269.735 51.603C269.677 51.4364 269.636 51.2697 269.61 51.103C269.578 50.9259 269.547 50.7436 269.505 50.5614C268.641 51.3947 267.651 52.0301 266.526 52.4572C265.401 52.8739 264.224 53.0822 263.005 53.0822ZM265.297 48.1864C266.281 48.1864 267.12 47.9936 267.818 47.603C268.511 47.202 269.11 46.6395 269.61 45.9155V42.0197C268.302 42.0509 267.089 42.1551 265.964 42.3322C264.839 42.4989 263.927 42.8218 263.235 43.2905C262.537 43.7489 262.193 44.4364 262.193 45.353C262.193 46.1759 262.453 46.853 262.985 47.3947C263.526 47.9259 264.297 48.1864 265.297 48.1864Z" fill="#004AAD"/>
<path d="M291.65 53.0822C289.994 53.0822 288.536 52.7384 287.275 52.0614C286.025 51.3843 284.963 50.2645 284.088 48.7072C283.223 47.1395 282.551 45.0405 282.067 42.4155C281.593 39.7801 281.301 36.5093 281.192 32.603C281.161 31.3426 281.468 30.3687 282.109 29.6864C282.76 29.0093 283.681 28.6655 284.879 28.6655H285.254C287.713 28.6655 288.942 29.9937 288.942 32.6447C289.01 36.4364 289.15 39.3843 289.359 41.478C289.577 43.577 289.921 45.0405 290.379 45.8739C290.838 46.6968 291.431 47.103 292.171 47.103C292.739 47.103 293.244 46.9312 293.692 46.5822C294.15 46.2384 294.51 45.5718 294.775 44.5822C295.051 43.5978 295.244 42.1603 295.359 40.2697C295.484 38.3687 295.515 35.8687 295.463 32.7697C295.405 30.0353 296.515 28.6655 298.796 28.6655C299.89 28.6655 300.744 29.452 301.359 31.0197C301.968 32.577 302.14 34.827 301.879 37.7697C301.53 41.6187 300.911 44.6603 300.025 46.8947C299.15 49.1343 298.01 50.7228 296.609 51.6655C295.202 52.6134 293.551 53.0822 291.65 53.0822Z" fill="#004AAD"/>
<path d="M316.93 53.0822C313.055 53.0822 310.222 52.0197 308.43 49.8947C306.639 47.7697 305.743 44.5718 305.743 40.2905C305.743 32.2801 309.472 28.2697 316.93 28.2697C319.623 28.2697 321.784 28.8322 323.409 29.9572C325.045 31.0822 326.191 32.6655 326.847 34.7072C327.498 36.7489 327.68 39.1134 327.389 41.7905C327.331 42.2645 327.118 42.4989 326.743 42.4989H312.889C312.956 43.9728 313.17 45.1186 313.534 45.9364C313.894 46.7436 314.368 47.3009 314.951 47.603C315.545 47.8947 316.222 48.0405 316.972 48.0405C318.097 48.0405 318.993 47.853 319.659 47.478C320.212 47.103 320.644 46.7436 320.951 46.3947C321.253 46.0509 321.581 45.7645 321.93 45.5405C322.274 45.3061 322.748 45.1864 323.347 45.1864C324.472 45.1864 325.368 45.4728 326.034 46.0405C326.701 46.5978 326.873 47.3686 326.555 48.353C325.54 51.5093 322.331 53.0822 316.93 53.0822ZM312.951 38.4155H320.055C320.107 36.6811 319.857 35.3843 319.305 34.5197C318.764 33.6447 317.852 33.2072 316.576 33.2072C315.451 33.2072 314.555 33.6395 313.889 34.4989C313.222 35.3478 312.909 36.6551 312.951 38.4155Z" fill="#004AAD"/>
<path d="M340.797 53.1655C337.99 53.1655 335.823 52.7749 334.297 51.9989C332.782 51.2228 331.782 50.077 331.297 48.5614C330.922 47.3843 331.047 46.4572 331.672 45.7905C332.308 45.1239 333.136 44.7905 334.151 44.7905H334.297C334.974 44.7905 335.49 44.9103 335.839 45.1447C336.183 45.3686 336.495 45.6968 336.776 46.1239C337.052 46.5405 337.391 47.0197 337.797 47.5614C338.198 48.0926 339.094 48.353 340.485 48.353C341.844 48.353 342.797 48.1395 343.339 47.7072C343.891 47.2645 344.172 46.728 344.172 46.103C344.172 45.2853 343.933 44.6759 343.464 44.2697C342.99 43.8686 342.365 43.5718 341.589 43.3739C340.823 43.1655 339.974 42.9936 339.047 42.853C338.131 42.702 337.198 42.5145 336.256 42.2905C335.323 42.0561 334.469 41.702 333.693 41.228C332.927 40.7436 332.308 40.0561 331.839 39.1655C331.365 38.2645 331.131 37.0926 331.131 35.6447C331.131 30.728 334.526 28.2697 341.318 28.2697C346.485 28.2697 349.547 29.7905 350.506 32.8322C350.849 33.9884 350.703 34.8895 350.068 35.5405C349.443 36.1811 348.62 36.4989 347.61 36.4989H347.422C346.756 36.4989 346.24 36.3947 345.881 36.1864C345.516 35.9676 345.198 35.6603 344.922 35.2697C344.657 34.8843 344.308 34.4468 343.881 33.9572C343.407 33.4884 342.552 33.2489 341.318 33.2489C340.162 33.2489 339.365 33.4364 338.922 33.8114C338.49 34.1864 338.276 34.7072 338.276 35.3739C338.276 36.2489 338.594 36.8895 339.235 37.2905C339.87 37.6968 340.677 37.978 341.651 38.1447C342.636 38.3009 343.693 38.4676 344.818 38.6447C345.953 38.8114 347.011 39.0978 347.985 39.4989C348.969 39.9051 349.782 40.5509 350.422 41.4364C351.058 42.3114 351.381 43.5509 351.381 45.1447C351.381 47.8009 350.485 49.8009 348.693 51.1447C346.901 52.4936 344.266 53.1655 340.797 53.1655Z" fill="#004AAD"/>
</g>
<defs>
<clipPath id="clip0_20_44">
<rect width="375" height="77" fill="white"/>
</clipPath>
</defs>
</svg>
